<svg width="44" height="44" viewBox="0 0 44 44" fill="none" xmlns="http://www.w3.org/2000/svg">
<path d="M4.75685 14.0721L0.0361357 6.29693H9.4585L4.75685 14.0721Z" fill="#1E22AA"/>
<path d="M17.0063 15.4635L13.3568 21.7656H20.6558L17.0063 15.4635Z" fill="#1E22AA"/>
<path d="M21.3253 23.026L21.3253 37.96H30.0317L21.3253 23.026Z" fill="#1E22AA"/>
<path d="M43.9 30.1302C43.9 34.4334 40.401 37.9219 36.0847 37.9219C31.7685 37.9219 28.2695 34.4334 28.2695 30.1302C28.2695 25.827 31.7685 22.3386 36.0847 22.3386C40.401 22.3386 43.9 25.827 43.9 30.1302Z" fill="#1E22AA"/>
<path d="M4.82373 22.1857H12.6389V37.9218H4.82373V22.1857Z" fill="#1E22AA"/>
<path fill-rule="evenodd" clip-rule="evenodd" d="M13.0991 37.9218C17.5 37.9218 21.0676 34.3992 21.0676 30.0538C21.0676 25.7084 17.5 22.1857 13.0991 22.1857V37.9218Z" fill="#1E22AA"/>
<path fill-rule="evenodd" clip-rule="evenodd" d="M25.889 29.8159C25.889 29.8159 25.889 29.8159 25.889 29.8159C28.0227 28.5503 29.4955 27.0747 27.9631 24.1719C27.1203 22.5754 25.6645 22.033 21.6037 22.4149C21.5713 22.4341 21.5393 22.4538 21.5077 22.4739L25.889 29.8159Z" fill="#1E22AA"/>
<path d="M4.75684 14.6667H12.6848V21.8019H4.75684V14.6667Z" fill="#1E22AA"/>
<path d="M17.1597 14.9288L22.2166 6.44962L31.0278 21.8802H21.2205L17.1597 14.9288Z" fill="#1E22AA"/>
<path d="M9.88063 6.29689H17.6192L12.6389 14.6997H4.82373L9.88063 6.29689Z" fill="#1E22AA"/>
</svg>
